HIERARCHY
ROOT Hips
{
  OFFSET 0 0 0
  CHANNELS 6 Xposition Yposition Zposition Zrotation Yrotation Xrotation
  JOINT LeftThigh
  {
    OFFSET 8.409438 0 -5.917753
    CHANNELS 3 Zrotation Yrotation Xrotation
    JOINT LeftLeg
    {
      OFFSET 0 0 -42.358652
      CHANNELS 3 Zrotation Yrotation Xrotation
      JOINT LeftFoot
      {
        OFFSET 0 0 -39.357303
        CHANNELS 3 Zrotation Yrotation Xrotation
      }
    }
  }
  JOINT RightThigh
  {
    OFFSET -8.409438 0 -5.917753
    CHANNELS 3 Zrotation Yrotation Xrotation
    JOINT RightLeg
    {
      OFFSET 0 0 -42.358652
      CHANNELS 3 Zrotation Yrotation Xrotation
      JOINT RightFoot
      {
        OFFSET 0 0 -39.357303
        CHANNELS 3 Zrotation Yrotation Xrotation
      }
    }
  }
  JOINT SpineLow
  {
    OFFSET 0 0 4.719101
    CHANNELS 3 Zrotation Yrotation Xrotation
    JOINT SpineMid
    {
      OFFSET 0 0 12.899191
      CHANNELS 3 Zrotation Yrotation Xrotation
      JOINT Chest
      {
        OFFSET 0 0 12.899191
        CHANNELS 3 Zrotation Yrotation Xrotation
        JOINT LeftShoulder
        {
          OFFSET 7.550562 1.41573 9.438202
          CHANNELS 3 Zrotation Yrotation Xrotation
          JOINT LeftArm
          {
            OFFSET 9.155056 0 4.247191
            CHANNELS 3 Zrotation Yrotation Xrotation
            JOINT LeftForearm
            {
              OFFSET 0 0 25.771955
              CHANNELS 3 Zrotation Yrotation Xrotation
              JOINT LeftHand
              {
                OFFSET 0 0 25.197169
                CHANNELS 3 Zrotation Yrotation Xrotation
              }
            }
          }
        }
        JOINT RightShoulder
        {
          OFFSET -7.550562 1.41573 9.438202
          CHANNELS 3 Zrotation Yrotation Xrotation
          JOINT RightArm
          {
            OFFSET -9.155056 0 4.247191
            CHANNELS 3 Zrotation Yrotation Xrotation
            JOINT RightForearm
            {
              OFFSET 0 0 -25.771955
              CHANNELS 3 Zrotation Yrotation Xrotation
              JOINT RightHand
              {
                OFFSET 0 0 -25.197169
                CHANNELS 3 Zrotation Yrotation Xrotation
              }
            }
          }
        }
        JOINT Neck
        {
          OFFSET 0 0 15.101124
          CHANNELS 3 Zrotation Yrotation Xrotation
          JOINT Head
          {
            OFFSET 0 0 11.325843
            CHANNELS 3 Zrotation Yrotation Xrotation
            End Site
            {
              OFFSET 0 0 14.157303
            }
          }
        }
      }
    }
  }
}
MOTION
Frames: 5
Frame Time: 0.0
0.0  93.25843  0.0  82.700168  -52.252831  -162.33472  32.024108  -47.537831  -60.493877  -6.860334  26.807071  85.795839  7.537789  -4.026756  -10.74458  18.303272  30.145322  -15.815995  11.563361  12.504532  17.095777  2.041228  1.377885  1.597316  -0.494058  1.606291  2.315344  -1.196812  4.433142  6.304311  -1.196812  4.433142  6.304311  0.822434  38.183626  14.222323  -163.707455  57.998921  -130.385563  -32.663911  -10.292164  94.004601  73.923046  -35.782776  5.895333  24.031006  -1.058119  23.396201  166.011191  49.60527  105.764398  -24.287707  -17.419257  -102.291928  74.863052  0.126829  -4.702223  18.574488  18.142788  21.468152  13.174407  14.287096  15.412498  
0.0  93.25843  0.0  82.587851  -52.111845  -161.94385  31.361174  -48.223007  -57.795184  -10.344466  24.863375  74.927938  8.317542  -4.453398  -10.6095  18.033537  30.319005  -16.212112  11.080089  12.591415  16.997787  2.357353  1.451122  1.692833  -0.652356  1.599921  2.32024  -1.629921  4.430877  6.307106  -1.629921  4.430877  6.307106  0.764973  38.607538  14.242746  -164.074106  57.702012  -130.769597  -32.330535  -10.777202  94.325532  74.470938  -35.549992  5.963075  24.158768  -0.673106  23.455092  166.49023  49.503541  106.891165  -24.053058  -17.873013  -102.436492  72.141007  1.575936  -5.212763  18.380693  18.401501  21.389639  13.018935  14.471781  15.347056  
0.0  93.25843  0.0  82.126885  -51.958858  -161.400239  29.96024  -48.693035  -53.867194  -13.65978  21.92531  63.08778  8.689473  -4.867194  -10.536173  17.67246  30.406619  -16.410879  10.98743  12.621054  17.106948  2.312593  1.449886  1.698391  -0.835591  1.594363  2.339965  -2.130129  4.433665  6.348797  -2.130129  4.433665  6.348797  0.80832  38.888706  14.363694  -164.706873  57.404579  -131.359966  -32.255314  -11.206918  94.181237  74.814492  -35.665179  6.414352  24.267651  -0.341729  23.469138  166.668644  49.308599  107.596769  -23.798752  -18.6797  -102.534289  71.644491  1.895005  -5.202796  18.212561  18.640884  21.388472  12.881334  14.64536  15.339473  
0.0  93.25843  0.0  81.768858  -51.630156  -161.041534  27.793741  -49.26299  -48.649981  -15.788434  18.324456  50.943173  8.291292  -5.286788  -10.585482  16.956102  30.549883  -16.754419  10.726629  12.679204  17.10035  2.650087  1.479744  1.792026  -1.015251  1.62608  2.358711  -2.617137  4.538078  6.386884  -2.617137  4.538078  6.386884  1.048724  39.160064  14.704215  -165.450372  57.277876  -131.941367  -32.227216  -11.383424  94.068324  75.267963  -35.599812  6.6829  24.313666  0.00919  23.568468  166.728717  49.184643  108.015579  -23.391184  -19.76812  -102.680076  71.080749  2.334151  -5.322041  18.066798  18.739196  21.650476  12.759848  14.722056  15.533962  
0.0  93.25843  0.0  81.640173  -51.38704  -160.817389  24.793066  -50.419852  -42.414252  -16.335743  15.507442  39.384271  8.029629  -6.520744  -10.738898  16.39897  30.744375  -17.032456  10.886555  12.662447  17.26032  2.638504  1.489656  1.795695  -1.15409  1.646255  2.332469  -2.996786  4.605301  6.304631  -2.996786  4.605301  6.304632  1.167151  39.394564  15.061377  -166.281282  57.124529  -132.746681  -32.306909  -11.243768  93.682452  75.684835  -35.587906  7.016433  24.231219  0.410168  23.851156  166.739652  49.162059  108.24949  -22.906851  -20.910728  -102.864263  70.521643  2.760934  -5.426523  17.945942  18.959287  22.00718  12.647456  14.893929  15.792167  
